<?xml version="1.0" encoding="UTF-8" standalone="no"?><svg xmlns="http://www.w3.org/2000/svg" xmlns:xlink="http://www.w3.org/1999/xlink" contentScriptType="application/ecmascript" contentStyleType="text/css" height="510px" preserveAspectRatio="none" style="width:2169px;height:510px;background:#000000;" version="1.1" viewBox="0 0 2169 510" width="2169px" zoomAndPan="magnify">
    <defs>
        <filter height="300%" id="fle1wj195idp5" width="300%" x="-1" y="-1">
            <feGaussianBlur result="blurOut" stdDeviation="2.0" />
            <feColorMatrix in="blurOut" result="blurOut2" type="matrix" values="0 0 0 0 0 0 0 0 0 0 0 0 0 0 0 0 0 0 .4 0" />
            <feOffset dx="4.0" dy="4.0" in="blurOut2" result="blurOut3" />
            <feBlend in="SourceGraphic" in2="blurOut3" mode="normal" />
        </filter>
    </defs>
    <g><text fill="#FFFFFF" font-family="monaco" font-size="18" lengthAdjust="spacingAndGlyphs" textLength="132" x="1012" y="19.5029">Draw Painter</text>
        <!--MD5=[b4ad4898268678f15fc8d4512d654a18]
cluster draw-->
        <polygon fill="#000000" filter="url(#fle1wj195idp5)" points="16,30.0029,54,30.0029,61,54.6719,2152,54.6719,2152,503.0029,16,503.0029,16,30.0029" style="stroke: #FFFFFF; stroke-width: 1.5;" />
        <line style="stroke: #FFFFFF; stroke-width: 1.5;" x1="16" x2="61" y1="54.6719" y2="54.6719" /><text fill="#FFFFFF" font-family="monaco" font-size="14" font-weight="bold" lengthAdjust="spacingAndGlyphs" textLength="32" x="20" y="47.1719">draw</text>
        <!--MD5=[cdd1313e7cb5c7929c64d00e765fe572]
class FigureCls-->
        <rect codeLine="9" fill="#070707" filter="url(#fle1wj195idp5)" height="150.6792" id="FigureCls" style="stroke: #C7C7C7; stroke-width: 1.5;" width="390" x="1296" y="103.5029" />
        <ellipse cx="1455.25" cy="119.5029" fill="#323232" rx="11" ry="11" style="stroke: #C7C7C7; stroke-width: 1.0;" />
        <path d="M1455.3633,115.1011 L1454.2095,120.1729 L1456.5254,120.1729 Z M1453.8691,112.8599 L1456.8657,112.8599 L1460.2109,125.2529 L1457.7622,125.2529 L1456.9985,122.1899 L1453.7197,122.1899 L1452.9727,125.2529 L1450.5239,125.2529 Z " /><text fill="#FFFFFF" font-family="monaco" font-size="12" font-style="italic" lengthAdjust="spacingAndGlyphs" textLength="63" x="1475.75" y="124.5039">FigureCls</text>
        <line style="stroke: #C7C7C7; stroke-width: 1.5;" x1="1297" x2="1685" y1="135.5029" y2="135.5029" />
        <polygon fill="none" points="1307,141.5029,1311,145.5029,1307,149.5029,1303,145.5029" style="stroke: #737373; stroke-width: 1.0;" /><text fill="#FFFFFF" font-family="monaco" font-size="11" lengthAdjust="spacingAndGlyphs" textLength="140" x="1316" y="151.4214">color Java.awt.Color</text>
        <polygon fill="none" points="1307,156.1714,1311,160.1714,1307,164.1714,1303,160.1714" style="stroke: #737373; stroke-width: 1.0;" /><text fill="#FFFFFF" font-family="monaco" font-size="11" lengthAdjust="spacingAndGlyphs" textLength="203" x="1316" y="166.0898">legendRect java.awt.Rectangle</text>
        <line style="stroke: #C7C7C7; stroke-width: 1.5;" x1="1297" x2="1685" y1="172.8398" y2="172.8398" />
        <ellipse cx="1307" cy="183.8398" fill="#595959" rx="3" ry="3" style="stroke: #ABABAB; stroke-width: 1.0;" /><text fill="#FFFFFF" font-family="monaco" font-size="11" lengthAdjust="spacingAndGlyphs" textLength="315" x="1316" y="188.7583">FigureCls(int x, int y int w, int y, Color c)</text>
        <ellipse cx="1307" cy="198.5083" fill="#595959" rx="3" ry="3" style="stroke: #ABABAB; stroke-width: 1.0;" /><text fill="#FFFFFF" font-family="monaco" font-size="11" lengthAdjust="spacingAndGlyphs" textLength="189" x="1316" y="203.4268">void setSize(int x , int y)</text>
        <ellipse cx="1307" cy="213.1768" fill="#595959" rx="3" ry="3" style="stroke: #ABABAB; stroke-width: 1.0;" /><text fill="#FFFFFF" font-family="monaco" font-size="11" lengthAdjust="spacingAndGlyphs" textLength="210" x="1316" y="218.0952">void setLocation(int x ,int y)</text>
        <ellipse cx="1307" cy="227.8452" fill="#595959" rx="3" ry="3" style="stroke: #ABABAB; stroke-width: 1.0;" /><text fill="#FFFFFF" font-family="monaco" font-size="11" lengthAdjust="spacingAndGlyphs" textLength="217" x="1316" y="232.7637">abstruct void paint(Graphics g)</text>
        <ellipse cx="1307" cy="242.5137" fill="#595959" rx="3" ry="3" style="stroke: #ABABAB; stroke-width: 1.0;" /><text fill="#FFFFFF" font-family="monaco" font-size="11" lengthAdjust="spacingAndGlyphs" textLength="364" x="1316" y="247.4321">abstruct void reDraw(int x1 int y1 , int x2, int y2)</text>
        <!--MD5=[ba4682138c9d2859cef59e57763d057f]
class LineFigureCls-->
        <rect codeLine="19" fill="#070707" filter="url(#fle1wj195idp5)" height="92.0054" id="LineFigureCls" style="stroke: #C7C7C7; stroke-width: 1.5;" width="376" x="881" y="373.0029" />
        <ellipse cx="1019.25" cy="389.0029" fill="#3D3D3D" rx="11" ry="11" style="stroke: #C7C7C7; stroke-width: 1.0;" />
        <path d="M1021.7231,395.146 Q1021.1421,395.4448 1020.5029,395.5942 Q1019.8638,395.7437 1019.1582,395.7437 Q1016.6514,395.7437 1015.3315,394.0918 Q1014.0117,392.4399 1014.0117,389.3188 Q1014.0117,386.1895 1015.3315,384.5376 Q1016.6514,382.8857 1019.1582,382.8857 Q1019.8638,382.8857 1020.5112,383.0352 Q1021.1587,383.1846 1021.7231,383.4834 L1021.7231,386.2061 Q1021.0923,385.625 1020.4988,385.3552 Q1019.9053,385.0854 1019.2744,385.0854 Q1017.9297,385.0854 1017.2449,386.1521 Q1016.5601,387.2188 1016.5601,389.3188 Q1016.5601,391.4106 1017.2449,392.4773 Q1017.9297,393.5439 1019.2744,393.5439 Q1019.9053,393.5439 1020.4988,393.2742 Q1021.0923,393.0044 1021.7231,392.4233 Z " /><text fill="#FFFFFF" font-family="monaco" font-size="12" lengthAdjust="spacingAndGlyphs" textLength="91" x="1039.75" y="394.0039">LineFigureCls</text>
        <line style="stroke: #C7C7C7; stroke-width: 1.5;" x1="882" x2="1256" y1="405.0029" y2="405.0029" />
        <line style="stroke: #C7C7C7; stroke-width: 1.5;" x1="882" x2="1256" y1="413.0029" y2="413.0029" />
        <ellipse cx="892" cy="424.0029" fill="#595959" rx="3" ry="3" style="stroke: #ABABAB; stroke-width: 1.0;" /><text fill="#FFFFFF" font-family="monaco" font-size="11" lengthAdjust="spacingAndGlyphs" textLength="350" x="901" y="428.9214">LineFigureCls(int x1, int y1, int w int h Color c)</text>
        <ellipse cx="892" cy="438.6714" fill="#595959" rx="3" ry="3" style="stroke: #ABABAB; stroke-width: 1.0;" /><text fill="#FFFFFF" font-family="monaco" font-size="11" lengthAdjust="spacingAndGlyphs" textLength="301" x="901" y="443.5898">void reDraw(int x1 int y1 , int x2, int y2)</text>
        <ellipse cx="892" cy="453.3398" fill="#595959" rx="3" ry="3" style="stroke: #ABABAB; stroke-width: 1.0;" /><text fill="#FFFFFF" font-family="monaco" font-size="11" lengthAdjust="spacingAndGlyphs" textLength="154" x="901" y="458.2583">void paint(Graphics g)</text>
        <!--MD5=[072d112b7a75eadedb1072cf49e3e7d5]
class CircleFigureCls-->
        <rect codeLine="25" fill="#070707" filter="url(#fle1wj195idp5)" height="92.0054" id="CircleFigureCls" style="stroke: #C7C7C7; stroke-width: 1.5;" width="397" x="1292.5" y="373.0029" />
        <ellipse cx="1434.25" cy="389.0029" fill="#3D3D3D" rx="11" ry="11" style="stroke: #C7C7C7; stroke-width: 1.0;" />
        <path d="M1436.7231,395.146 Q1436.1421,395.4448 1435.5029,395.5942 Q1434.8638,395.7437 1434.1582,395.7437 Q1431.6514,395.7437 1430.3315,394.0918 Q1429.0117,392.4399 1429.0117,389.3188 Q1429.0117,386.1895 1430.3315,384.5376 Q1431.6514,382.8857 1434.1582,382.8857 Q1434.8638,382.8857 1435.5112,383.0352 Q1436.1587,383.1846 1436.7231,383.4834 L1436.7231,386.2061 Q1436.0923,385.625 1435.4988,385.3552 Q1434.9053,385.0854 1434.2744,385.0854 Q1432.9297,385.0854 1432.2449,386.1521 Q1431.5601,387.2188 1431.5601,389.3188 Q1431.5601,391.4106 1432.2449,392.4773 Q1432.9297,393.5439 1434.2744,393.5439 Q1434.9053,393.5439 1435.4988,393.2742 Q1436.0923,393.0044 1436.7231,392.4233 Z " /><text fill="#FFFFFF" font-family="monaco" font-size="12" lengthAdjust="spacingAndGlyphs" textLength="105" x="1454.75" y="394.0039">CircleFigureCls</text>
        <line style="stroke: #C7C7C7; stroke-width: 1.5;" x1="1293.5" x2="1688.5" y1="405.0029" y2="405.0029" />
        <line style="stroke: #C7C7C7; stroke-width: 1.5;" x1="1293.5" x2="1688.5" y1="413.0029" y2="413.0029" />
        <ellipse cx="1303.5" cy="424.0029" fill="#595959" rx="3" ry="3" style="stroke: #ABABAB; stroke-width: 1.0;" /><text fill="#FFFFFF" font-family="monaco" font-size="11" lengthAdjust="spacingAndGlyphs" textLength="371" x="1312.5" y="428.9214">CircleFiguresCls(int x1, int y1, int w int h Color c)</text>
        <ellipse cx="1303.5" cy="438.6714" fill="#595959" rx="3" ry="3" style="stroke: #ABABAB; stroke-width: 1.0;" /><text fill="#FFFFFF" font-family="monaco" font-size="11" lengthAdjust="spacingAndGlyphs" textLength="301" x="1312.5" y="443.5898">void reDraw(int x1 int y1 , int x2, int y2)</text>
        <ellipse cx="1303.5" cy="453.3398" fill="#595959" rx="3" ry="3" style="stroke: #ABABAB; stroke-width: 1.0;" /><text fill="#FFFFFF" font-family="monaco" font-size="11" lengthAdjust="spacingAndGlyphs" textLength="154" x="1312.5" y="458.2583">void paint(Graphics g)</text>
        <!--MD5=[6a402ffef3ba323aea57f2b0fee80ef4]
class RectangleFigureCls-->
        <rect codeLine="31" fill="#070707" filter="url(#fle1wj195idp5)" height="92.0054" id="RectangleFigureCls" style="stroke: #C7C7C7; stroke-width: 1.5;" width="411" x="1724.5" y="373.0029" />
        <ellipse cx="1862.75" cy="389.0029" fill="#3D3D3D" rx="11" ry="11" style="stroke: #C7C7C7; stroke-width: 1.0;" />
        <path d="M1865.2231,395.146 Q1864.6421,395.4448 1864.0029,395.5942 Q1863.3638,395.7437 1862.6582,395.7437 Q1860.1514,395.7437 1858.8315,394.0918 Q1857.5117,392.4399 1857.5117,389.3188 Q1857.5117,386.1895 1858.8315,384.5376 Q1860.1514,382.8857 1862.6582,382.8857 Q1863.3638,382.8857 1864.0112,383.0352 Q1864.6587,383.1846 1865.2231,383.4834 L1865.2231,386.2061 Q1864.5923,385.625 1863.9988,385.3552 Q1863.4053,385.0854 1862.7744,385.0854 Q1861.4297,385.0854 1860.7449,386.1521 Q1860.0601,387.2188 1860.0601,389.3188 Q1860.0601,391.4106 1860.7449,392.4773 Q1861.4297,393.5439 1862.7744,393.5439 Q1863.4053,393.5439 1863.9988,393.2742 Q1864.5923,393.0044 1865.2231,392.4233 Z " /><text fill="#FFFFFF" font-family="monaco" font-size="12" lengthAdjust="spacingAndGlyphs" textLength="126" x="1883.25" y="394.0039">RectangleFigureCls</text>
        <line style="stroke: #C7C7C7; stroke-width: 1.5;" x1="1725.5" x2="2134.5" y1="405.0029" y2="405.0029" />
        <line style="stroke: #C7C7C7; stroke-width: 1.5;" x1="1725.5" x2="2134.5" y1="413.0029" y2="413.0029" />
        <ellipse cx="1735.5" cy="424.0029" fill="#595959" rx="3" ry="3" style="stroke: #ABABAB; stroke-width: 1.0;" /><text fill="#FFFFFF" font-family="monaco" font-size="11" lengthAdjust="spacingAndGlyphs" textLength="385" x="1744.5" y="428.9214">RectangleFigureCls(int x1, int y1, int w int h Color c)</text>
        <ellipse cx="1735.5" cy="438.6714" fill="#595959" rx="3" ry="3" style="stroke: #ABABAB; stroke-width: 1.0;" /><text fill="#FFFFFF" font-family="monaco" font-size="11" lengthAdjust="spacingAndGlyphs" textLength="301" x="1744.5" y="443.5898">void reDraw(int x1 int y1 , int x2, int y2)</text>
        <ellipse cx="1735.5" cy="453.3398" fill="#595959" rx="3" ry="3" style="stroke: #ABABAB; stroke-width: 1.0;" /><text fill="#FFFFFF" font-family="monaco" font-size="11" lengthAdjust="spacingAndGlyphs" textLength="154" x="1744.5" y="458.2583">void paint(Graphics g)</text>
        <!--MD5=[ba5bfa1cf91b45263a70acfb8fef99a8]
class DrawAppCore-->
        <rect codeLine="37" fill="#070707" filter="url(#fle1wj195idp5)" height="224.0215" id="DrawAppCore" style="stroke: #C7C7C7; stroke-width: 1.5;" width="369" x="849.5" y="67.0029" />
        <ellipse cx="991.25" cy="83.0029" fill="#3D3D3D" rx="11" ry="11" style="stroke: #C7C7C7; stroke-width: 1.0;" />
        <path d="M993.7231,89.146 Q993.1421,89.4448 992.5029,89.5942 Q991.8638,89.7437 991.1582,89.7437 Q988.6514,89.7437 987.3315,88.0918 Q986.0117,86.4399 986.0117,83.3188 Q986.0117,80.1895 987.3315,78.5376 Q988.6514,76.8857 991.1582,76.8857 Q991.8638,76.8857 992.5112,77.0352 Q993.1587,77.1846 993.7231,77.4834 L993.7231,80.2061 Q993.0923,79.625 992.4988,79.3552 Q991.9053,79.0854 991.2744,79.0854 Q989.9297,79.0854 989.2449,80.1521 Q988.5601,81.2188 988.5601,83.3188 Q988.5601,85.4106 989.2449,86.4773 Q989.9297,87.5439 991.2744,87.5439 Q991.9053,87.5439 992.4988,87.2742 Q993.0923,87.0044 993.7231,86.4233 Z " /><text fill="#FFFFFF" font-family="monaco" font-size="12" lengthAdjust="spacingAndGlyphs" textLength="77" x="1011.75" y="88.0039">DrawAppCore</text>
        <line style="stroke: #C7C7C7; stroke-width: 1.5;" x1="850.5" x2="1217.5" y1="99.0029" y2="99.0029" />
        <polygon fill="none" points="860.5,105.0029,864.5,109.0029,860.5,113.0029,856.5,109.0029" style="stroke: #737373; stroke-width: 1.0;" /><text fill="#FFFFFF" font-family="monaco" font-size="11" lengthAdjust="spacingAndGlyphs" textLength="168" x="869.5" y="114.9214">figureList Deque&lt;Figure&gt;</text>
        <polygon fill="none" points="860.5,119.6714,864.5,123.6714,860.5,127.6714,856.5,123.6714" style="stroke: #737373; stroke-width: 1.0;" /><text fill="#FFFFFF" font-family="monaco" font-size="11" lengthAdjust="spacingAndGlyphs" textLength="119" x="869.5" y="129.5898">drawFigure Figure</text>
        <polygon fill="none" points="860.5,134.3398,864.5,138.3398,860.5,142.3398,856.5,138.3398" style="stroke: #737373; stroke-width: 1.0;" /><text fill="#FFFFFF" font-family="monaco" font-size="11" lengthAdjust="spacingAndGlyphs" textLength="140" x="869.5" y="144.2583">void actvColor Color</text>
        <line style="stroke: #C7C7C7; stroke-width: 1.5;" x1="850.5" x2="1217.5" y1="151.0083" y2="151.0083" />
        <ellipse cx="860.5" cy="162.0083" fill="#595959" rx="3" ry="3" style="stroke: #ABABAB; stroke-width: 1.0;" /><text fill="#FFFFFF" font-family="monaco" font-size="11" lengthAdjust="spacingAndGlyphs" textLength="91" x="869.5" y="166.9268">DrawAppCore()</text>
        <ellipse cx="860.5" cy="176.6768" fill="#595959" rx="3" ry="3" style="stroke: #ABABAB; stroke-width: 1.0;" /><text fill="#FFFFFF" font-family="monaco" font-size="11" lengthAdjust="spacingAndGlyphs" textLength="203" x="869.5" y="181.5952">setDrawPanel(DrawPanel panel)</text>
        <ellipse cx="860.5" cy="191.3452" fill="#595959" rx="3" ry="3" style="stroke: #ABABAB; stroke-width: 1.0;" /><text fill="#FFFFFF" font-family="monaco" font-size="11" lengthAdjust="spacingAndGlyphs" textLength="168" x="869.5" y="196.2637">int getNumberOfFigures()</text>
        <ellipse cx="860.5" cy="206.0137" fill="#595959" rx="3" ry="3" style="stroke: #ABABAB; stroke-width: 1.0;" /><text fill="#FFFFFF" font-family="monaco" font-size="11" lengthAdjust="spacingAndGlyphs" textLength="203" x="869.5" y="210.9321">void drawPaintAll(Graphics g)</text>
        <ellipse cx="860.5" cy="220.6821" fill="#595959" rx="3" ry="3" style="stroke: #ABABAB; stroke-width: 1.0;" /><text fill="#FFFFFF" font-family="monaco" font-size="11" lengthAdjust="spacingAndGlyphs" textLength="238" x="869.5" y="225.6006">void generateFigure(int x , int y)</text>
        <ellipse cx="860.5" cy="235.3506" fill="#595959" rx="3" ry="3" style="stroke: #ABABAB; stroke-width: 1.0;" /><text fill="#FFFFFF" font-family="monaco" font-size="11" lengthAdjust="spacingAndGlyphs" textLength="343" x="869.5" y="240.269">void reDrawFigure(int x1 int y1 , int x2, int y2)</text>
        <ellipse cx="860.5" cy="250.019" fill="#595959" rx="3" ry="3" style="stroke: #ABABAB; stroke-width: 1.0;" /><text fill="#FFFFFF" font-family="monaco" font-size="11" lengthAdjust="spacingAndGlyphs" textLength="175" x="869.5" y="254.9375">void updateColor(Color c)</text>
        <ellipse cx="860.5" cy="264.6875" fill="#595959" rx="3" ry="3" style="stroke: #ABABAB; stroke-width: 1.0;" /><text fill="#FFFFFF" font-family="monaco" font-size="11" lengthAdjust="spacingAndGlyphs" textLength="105" x="869.5" y="269.606">void eachUndo()</text>
        <ellipse cx="860.5" cy="279.356" fill="#595959" rx="3" ry="3" style="stroke: #ABABAB; stroke-width: 1.0;" /><text fill="#FFFFFF" font-family="monaco" font-size="11" lengthAdjust="spacingAndGlyphs" textLength="77" x="869.5" y="284.2744">void undo()</text>
        <!--MD5=[38e38478744200eb6e352f57864403af]
class DrawPanel-->
        <rect codeLine="53" fill="#070707" filter="url(#fle1wj195idp5)" height="62.6685" id="DrawPanel" style="stroke: #C7C7C7; stroke-width: 1.5;" width="222" x="624" y="387.5029" />
        <ellipse cx="699.25" cy="403.5029" fill="#3D3D3D" rx="11" ry="11" style="stroke: #C7C7C7; stroke-width: 1.0;" />
        <path d="M701.7231,409.646 Q701.1421,409.9448 700.5029,410.0942 Q699.8638,410.2437 699.1582,410.2437 Q696.6514,410.2437 695.3315,408.5918 Q694.0117,406.9399 694.0117,403.8188 Q694.0117,400.6895 695.3315,399.0376 Q696.6514,397.3857 699.1582,397.3857 Q699.8638,397.3857 700.5112,397.5352 Q701.1587,397.6846 701.7231,397.9834 L701.7231,400.7061 Q701.0923,400.125 700.4988,399.8552 Q699.9053,399.5854 699.2744,399.5854 Q697.9297,399.5854 697.2449,400.6521 Q696.5601,401.7188 696.5601,403.8188 Q696.5601,405.9106 697.2449,406.9773 Q697.9297,408.0439 699.2744,408.0439 Q699.9053,408.0439 700.4988,407.7742 Q701.0923,407.5044 701.7231,406.9233 Z " /><text fill="#FFFFFF" font-family="monaco" font-size="12" lengthAdjust="spacingAndGlyphs" textLength="63" x="719.75" y="408.5039">DrawPanel</text>
        <line style="stroke: #C7C7C7; stroke-width: 1.5;" x1="625" x2="845" y1="419.5029" y2="419.5029" />
        <line style="stroke: #C7C7C7; stroke-width: 1.5;" x1="625" x2="845" y1="427.5029" y2="427.5029" /><text fill="#FFFFFF" font-family="monaco" font-size="11" lengthAdjust="spacingAndGlyphs" textLength="210" x="630" y="443.4214">DrawPanel(DrawAppCore appCore)</text>
        <!--MD5=[36afe292eb27441132c327893668631d]
class JPanel-->
        <rect fill="#070707" filter="url(#fle1wj195idp5)" height="48" id="JPanel" style="stroke: #C7C7C7; stroke-width: 1.5;" width="74" x="698" y="155.0029" />
        <ellipse cx="713" cy="171.0029" fill="#3D3D3D" rx="11" ry="11" style="stroke: #C7C7C7; stroke-width: 1.0;" />
        <path d="M715.4731,177.146 Q714.8921,177.4448 714.2529,177.5942 Q713.6138,177.7437 712.9082,177.7437 Q710.4014,177.7437 709.0815,176.0918 Q707.7617,174.4399 707.7617,171.3188 Q707.7617,168.1895 709.0815,166.5376 Q710.4014,164.8857 712.9082,164.8857 Q713.6138,164.8857 714.2612,165.0352 Q714.9087,165.1846 715.4731,165.4834 L715.4731,168.2061 Q714.8423,167.625 714.2488,167.3552 Q713.6553,167.0854 713.0244,167.0854 Q711.6797,167.0854 710.9949,168.1521 Q710.3101,169.2188 710.3101,171.3188 Q710.3101,173.4106 710.9949,174.4773 Q711.6797,175.5439 713.0244,175.5439 Q713.6553,175.5439 714.2488,175.2742 Q714.8423,175.0044 715.4731,174.4233 Z " /><text fill="#FFFFFF" font-family="monaco" font-size="12" lengthAdjust="spacingAndGlyphs" textLength="42" x="727" y="176.0039">JPanel</text>
        <line style="stroke: #C7C7C7; stroke-width: 1.5;" x1="699" x2="771" y1="187.0029" y2="187.0029" />
        <line style="stroke: #C7C7C7; stroke-width: 1.5;" x1="699" x2="771" y1="195.0029" y2="195.0029" />
        <!--MD5=[41626ae81a8c3218c375b935c56adcc5]
class DrawMouseListener-->
        <rect codeLine="57" fill="#070707" filter="url(#fle1wj195idp5)" height="136.0107" id="DrawMouseListener" style="stroke: #C7C7C7; stroke-width: 1.5;" width="250" x="339" y="351.0029" />
        <ellipse cx="400.25" cy="367.0029" fill="#3D3D3D" rx="11" ry="11" style="stroke: #C7C7C7; stroke-width: 1.0;" />
        <path d="M402.7231,373.146 Q402.1421,373.4448 401.5029,373.5942 Q400.8638,373.7437 400.1582,373.7437 Q397.6514,373.7437 396.3315,372.0918 Q395.0117,370.4399 395.0117,367.3188 Q395.0117,364.1895 396.3315,362.5376 Q397.6514,360.8857 400.1582,360.8857 Q400.8638,360.8857 401.5112,361.0352 Q402.1587,361.1846 402.7231,361.4834 L402.7231,364.2061 Q402.0923,363.625 401.4988,363.3552 Q400.9053,363.0854 400.2744,363.0854 Q398.9297,363.0854 398.2449,364.1521 Q397.5601,365.2188 397.5601,367.3188 Q397.5601,369.4106 398.2449,370.4773 Q398.9297,371.5439 400.2744,371.5439 Q400.9053,371.5439 401.4988,371.2742 Q402.0923,371.0044 402.7231,370.4233 Z " /><text fill="#FFFFFF" font-family="monaco" font-size="12" lengthAdjust="spacingAndGlyphs" textLength="119" x="420.75" y="372.0039">DrawMouseListener</text>
        <line style="stroke: #C7C7C7; stroke-width: 1.5;" x1="340" x2="588" y1="383.0029" y2="383.0029" />
        <polygon fill="none" points="350,389.0029,354,393.0029,350,397.0029,346,393.0029" style="stroke: #737373; stroke-width: 1.0;" /><text fill="#FFFFFF" font-family="monaco" font-size="11" lengthAdjust="spacingAndGlyphs" textLength="133" x="359" y="398.9214">appCore DrawAppCore</text>
        <polygon fill="none" points="350,403.6714,354,407.6714,350,411.6714,346,407.6714" style="stroke: #737373; stroke-width: 1.0;" /><text fill="#FFFFFF" font-family="monaco" font-size="11" lengthAdjust="spacingAndGlyphs" textLength="119" x="359" y="413.5898">dragCursorStX int</text>
        <polygon fill="none" points="350,418.3398,354,422.3398,350,426.3398,346,422.3398" style="stroke: #737373; stroke-width: 1.0;" /><text fill="#FFFFFF" font-family="monaco" font-size="11" lengthAdjust="spacingAndGlyphs" textLength="119" x="359" y="428.2583">dragCursorStY int</text>
        <line style="stroke: #C7C7C7; stroke-width: 1.5;" x1="340" x2="588" y1="435.0083" y2="435.0083" />
        <ellipse cx="350" cy="446.0083" fill="#595959" rx="3" ry="3" style="stroke: #ABABAB; stroke-width: 1.0;" /><text fill="#FFFFFF" font-family="monaco" font-size="11" lengthAdjust="spacingAndGlyphs" textLength="217" x="359" y="450.9268">void mousePressed(MouseEvent e)</text>
        <ellipse cx="350" cy="460.6768" fill="#595959" rx="3" ry="3" style="stroke: #ABABAB; stroke-width: 1.0;" /><text fill="#FFFFFF" font-family="monaco" font-size="11" lengthAdjust="spacingAndGlyphs" textLength="217" x="359" y="465.5952">void mouseDragged(MouseEvent e)</text>
        <ellipse cx="350" cy="475.3452" fill="#595959" rx="3" ry="3" style="stroke: #ABABAB; stroke-width: 1.0;" /><text fill="#FFFFFF" font-family="monaco" font-size="11" lengthAdjust="spacingAndGlyphs" textLength="224" x="359" y="480.2637">void mouseReleased(MouseEvent e)</text>
        <!--MD5=[c8674649400207c3d9dcd40dffa6ca12]
class MouseInputAdapter-->
        <rect fill="#070707" filter="url(#fle1wj195idp5)" height="48" id="MouseInputAdapter" style="stroke: #C7C7C7; stroke-width: 1.5;" width="151" x="476.5" y="155.0029" />
        <ellipse cx="491.5" cy="171.0029" fill="#3D3D3D" rx="11" ry="11" style="stroke: #C7C7C7; stroke-width: 1.0;" />
        <path d="M493.9731,177.146 Q493.3921,177.4448 492.7529,177.5942 Q492.1138,177.7437 491.4082,177.7437 Q488.9014,177.7437 487.5815,176.0918 Q486.2617,174.4399 486.2617,171.3188 Q486.2617,168.1895 487.5815,166.5376 Q488.9014,164.8857 491.4082,164.8857 Q492.1138,164.8857 492.7612,165.0352 Q493.4087,165.1846 493.9731,165.4834 L493.9731,168.2061 Q493.3423,167.625 492.7488,167.3552 Q492.1553,167.0854 491.5244,167.0854 Q490.1797,167.0854 489.4949,168.1521 Q488.8101,169.2188 488.8101,171.3188 Q488.8101,173.4106 489.4949,174.4773 Q490.1797,175.5439 491.5244,175.5439 Q492.1553,175.5439 492.7488,175.2742 Q493.3423,175.0044 493.9731,174.4233 Z " /><text fill="#FFFFFF" font-family="monaco" font-size="12" lengthAdjust="spacingAndGlyphs" textLength="119" x="505.5" y="176.0039">MouseInputAdapter</text>
        <line style="stroke: #C7C7C7; stroke-width: 1.5;" x1="477.5" x2="626.5" y1="187.0029" y2="187.0029" />
        <line style="stroke: #C7C7C7; stroke-width: 1.5;" x1="477.5" x2="626.5" y1="195.0029" y2="195.0029" />
        <!--MD5=[9d4bad5adb42400af39a6d492f008444]
class SelectListener-->
        <rect codeLine="66" fill="#070707" filter="url(#fle1wj195idp5)" height="77.3369" id="SelectListener" style="stroke: #C7C7C7; stroke-width: 1.5;" width="271" x="32.5" y="380.5029" />
        <ellipse cx="114.75" cy="396.5029" fill="#3D3D3D" rx="11" ry="11" style="stroke: #C7C7C7; stroke-width: 1.0;" />
        <path d="M117.2231,402.646 Q116.6421,402.9448 116.0029,403.0942 Q115.3638,403.2437 114.6582,403.2437 Q112.1514,403.2437 110.8315,401.5918 Q109.5117,399.9399 109.5117,396.8188 Q109.5117,393.6895 110.8315,392.0376 Q112.1514,390.3857 114.6582,390.3857 Q115.3638,390.3857 116.0112,390.5352 Q116.6587,390.6846 117.2231,390.9834 L117.2231,393.7061 Q116.5923,393.125 115.9988,392.8552 Q115.4053,392.5854 114.7744,392.5854 Q113.4297,392.5854 112.7449,393.6521 Q112.0601,394.7188 112.0601,396.8188 Q112.0601,398.9106 112.7449,399.9773 Q113.4297,401.0439 114.7744,401.0439 Q115.4053,401.0439 115.9988,400.7742 Q116.5923,400.5044 117.2231,399.9233 Z " /><text fill="#FFFFFF" font-family="monaco" font-size="12" lengthAdjust="spacingAndGlyphs" textLength="98" x="135.25" y="401.5039">SelectListener</text>
        <line style="stroke: #C7C7C7; stroke-width: 1.5;" x1="33.5" x2="302.5" y1="412.5029" y2="412.5029" />
        <line style="stroke: #C7C7C7; stroke-width: 1.5;" x1="33.5" x2="302.5" y1="420.5029" y2="420.5029" />
        <ellipse cx="43.5" cy="431.5029" fill="#595959" rx="3" ry="3" style="stroke: #ABABAB; stroke-width: 1.0;" /><text fill="#FFFFFF" font-family="monaco" font-size="11" lengthAdjust="spacingAndGlyphs" textLength="245" x="52.5" y="436.4214">SelectListener(DrawAppCore appCore)</text>
        <ellipse cx="43.5" cy="446.1714" fill="#595959" rx="3" ry="3" style="stroke: #ABABAB; stroke-width: 1.0;" /><text fill="#FFFFFF" font-family="monaco" font-size="11" lengthAdjust="spacingAndGlyphs" textLength="245" x="52.5" y="451.0898">void actionPerformed(ActionEvent e)</text>
        <!--MD5=[04935357b5c5a2aec56a7c93da5b843d]
class ActionListener-->
        <rect fill="#070707" filter="url(#fle1wj195idp5)" height="48" id="ActionListener" style="stroke: #C7C7C7; stroke-width: 1.5;" width="130" x="311" y="155.0029" />
        <ellipse cx="326" cy="171.0029" fill="#4E4E4E" rx="11" ry="11" style="stroke: #C7C7C7; stroke-width: 1.0;" />
        <path d="M322.4277,167.2681 L322.4277,165.1099 L329.8071,165.1099 L329.8071,167.2681 L327.3418,167.2681 L327.3418,175.3447 L329.8071,175.3447 L329.8071,177.5029 L322.4277,177.5029 L322.4277,175.3447 L324.8931,175.3447 L324.8931,167.2681 Z " /><text fill="#FFFFFF" font-family="monaco" font-size="12" font-style="italic" lengthAdjust="spacingAndGlyphs" textLength="98" x="340" y="176.0039">ActionListener</text>
        <line style="stroke: #C7C7C7; stroke-width: 1.5;" x1="312" x2="440" y1="187.0029" y2="187.0029" />
        <line style="stroke: #C7C7C7; stroke-width: 1.5;" x1="312" x2="440" y1="195.0029" y2="195.0029" />
        <!--MD5=[1dee03b2073b1d8aeb133fe55aa3dd06]
class AppLauncher-->
        <rect codeLine="71" fill="#070707" filter="url(#fle1wj195idp5)" height="62.6685" id="AppLauncher" style="stroke: #C7C7C7; stroke-width: 1.5;" width="243" x="32.5" y="147.5029" />
        <ellipse cx="111.25" cy="163.5029" fill="#3D3D3D" rx="11" ry="11" style="stroke: #C7C7C7; stroke-width: 1.0;" />
        <path d="M113.7231,169.646 Q113.1421,169.9448 112.5029,170.0942 Q111.8638,170.2437 111.1582,170.2437 Q108.6514,170.2437 107.3315,168.5918 Q106.0117,166.9399 106.0117,163.8188 Q106.0117,160.6895 107.3315,159.0376 Q108.6514,157.3857 111.1582,157.3857 Q111.8638,157.3857 112.5112,157.5352 Q113.1587,157.6846 113.7231,157.9834 L113.7231,160.7061 Q113.0923,160.125 112.4988,159.8552 Q111.9053,159.5854 111.2744,159.5854 Q109.9297,159.5854 109.2449,160.6521 Q108.5601,161.7188 108.5601,163.8188 Q108.5601,165.9106 109.2449,166.9773 Q109.9297,168.0439 111.2744,168.0439 Q111.9053,168.0439 112.4988,167.7742 Q113.0923,167.5044 113.7231,166.9233 Z " /><text fill="#FFFFFF" font-family="monaco" font-size="12" lengthAdjust="spacingAndGlyphs" textLength="77" x="131.75" y="168.5039">AppLauncher</text>
        <line style="stroke: #C7C7C7; stroke-width: 1.5;" x1="33.5" x2="274.5" y1="179.5029" y2="179.5029" />
        <line style="stroke: #C7C7C7; stroke-width: 1.5;" x1="33.5" x2="274.5" y1="187.5029" y2="187.5029" />
        <ellipse cx="43.5" cy="198.5029" fill="#595959" rx="3" ry="3" style="stroke: #ABABAB; stroke-width: 1.0;" /><text fill="#FFFFFF" font-family="monaco" font-size="11" lengthAdjust="spacingAndGlyphs" textLength="217" x="52.5" y="203.4214">static void main(String[] args)</text>
        <!--MD5=[98dc8094bd9fac994364d9335d94eb5f]
reverse link FigureCls to LineFigureCls-->
        <path d="M1341.05,264.5729 C1276.29,301.0929 1203.13,342.3529 1149,372.8829 " fill="none" id="FigureCls-backto-LineFigureCls" style="stroke: #C7C7C7; stroke-width: 1.0;" />
        <polygon fill="none" points="1337.78,258.3829,1358.63,254.6529,1344.65,270.5729,1337.78,258.3829" style="stroke: #C7C7C7; stroke-width: 1.0;" />
        <!--MD5=[0a1451af12c60921b63273fdecc6921c]
reverse link FigureCls to CircleFigureCls-->
        <path d="M1491,274.6829 C1491,308.4729 1491,344.9929 1491,372.7029 " fill="none" id="FigureCls-backto-CircleFigureCls" style="stroke: #C7C7C7; stroke-width: 1.0;" />
        <polygon fill="none" points="1484,274.6529,1491,254.6529,1498,274.6529,1484,274.6529" style="stroke: #C7C7C7; stroke-width: 1.0;" />
        <!--MD5=[51028a60b8bc61eaa5a78cfdfbc1092c]
reverse link FigureCls to RectangleFigureCls-->
        <path d="M1646.56,264.3329 C1714.03,300.9229 1790.35,342.2929 1846.78,372.8829 " fill="none" id="FigureCls-backto-RectangleFigureCls" style="stroke: #C7C7C7; stroke-width: 1.0;" />
        <polygon fill="none" points="1642.94,270.3429,1628.7,254.6529,1649.62,258.0329,1642.94,270.3429" style="stroke: #C7C7C7; stroke-width: 1.0;" />
        <!--MD5=[d0d58af70485d00aca108bcc644d29fb]
reverse link JPanel to DrawPanel-->
        <path d="M735,223.4829 C735,270.8829 735,345.5129 735,387.2029 " fill="none" id="JPanel-backto-DrawPanel" style="stroke: #C7C7C7; stroke-width: 1.0;" />
        <polygon fill="none" points="728,223.2529,735,203.2529,742,223.2529,728,223.2529" style="stroke: #C7C7C7; stroke-width: 1.0;" />
        <!--MD5=[ae0dcf03aa2390d75b4c8195bc2de14c]
reverse link MouseInputAdapter to DrawMouseListener-->
        <path d="M536.41,222.1729 C523.24,257.7929 504.14,309.4529 488.86,350.7729 " fill="none" id="MouseInputAdapter-backto-DrawMouseListener" style="stroke: #C7C7C7; stroke-width: 1.0;" />
        <polygon fill="none" points="529.9,219.5829,543.4,203.2529,543.03,224.4429,529.9,219.5829" style="stroke: #C7C7C7; stroke-width: 1.0;" />
        <!--MD5=[4af8bb34145dab7e461361572d62050c]
reverse link ActionListener to SelectListener-->
        <path d="M348.38,219.6129 C332.8,241.2629 312.58,268.2129 293,291.0029 C265.99,322.4429 233,355.7729 207.7,380.3929 " fill="none" id="ActionListener-backto-SelectListener" style="stroke: #C7C7C7; stroke-width: 1.0; stroke-dasharray: 7.0,7.0;" />
        <polygon fill="none" points="342.73,215.4829,360.02,203.2329,354.14,223.5929,342.73,215.4829" style="stroke: #C7C7C7; stroke-width: 1.0;" />
        <!--MD5=[e1e54b3c0950355c0514f952ee51093d]
@startuml
  '!include ./config.txt
  skinparam monochrome reverse
  skinparam DefaultFontName monaco

  title Draw Painter

  package draw {

    abstract class FigureCls {
      # color Java.awt.Color
      # legendRect java.awt.Rectangle
      + FigureCls(int x, int y int w, int y, Color c)
      + void setSize(int x , int y)
      + void setLocation(int x ,int y)
      + abstruct void paint(Graphics g)
      + abstruct void reDraw(int x1 int y1 , int x2, int y2)
    }

    class LineFigureCls extends FigureCls {
      + LineFigureCls(int x1, int y1, int w int h Color c)
      + void reDraw(int x1 int y1 , int x2, int y2)
      + void paint(Graphics g)
    }

    class CircleFigureCls extends FigureCls {
      + CircleFiguresCls(int x1, int y1, int w int h Color c)
      + void reDraw(int x1 int y1 , int x2, int y2)
      + void paint(Graphics g)
    }

    class RectangleFigureCls extends FigureCls {
      + RectangleFigureCls(int x1, int y1, int w int h Color c)
      + void reDraw(int x1 int y1 , int x2, int y2)
      + void paint(Graphics g)
    }

    class DrawAppCore {
      # figureList Deque<Figure>
      # drawFigure Figure
      # void actvColor Color

      + DrawAppCore()
      + setDrawPanel(DrawPanel panel)
      + int getNumberOfFigures()
      + void drawPaintAll(Graphics g)
      + void generateFigure(int x , int y)
      + void reDrawFigure(int x1 int y1 , int x2, int y2)
      + void updateColor(Color c)
      + void eachUndo()
      + void undo()
    }

    class DrawPanel extends JPanel {
      DrawPanel(DrawAppCore appCore)
    }

    class DrawMouseListener extends MouseInputAdapter {
      # appCore DrawAppCore
      # dragCursorStX int
      # dragCursorStY int
      + void mousePressed(MouseEvent e)
      + void mouseDragged(MouseEvent e)
      + void mouseReleased(MouseEvent e)
    }

    class SelectListener implements ActionListener {
      + SelectListener(DrawAppCore appCore)
      + void actionPerformed(ActionEvent e)
    }

    class AppLauncher {
      + static void main(String[] args)
    }
  }
@enduml

@startuml
  skinparam monochrome reverse
  skinparam DefaultFontName monaco

  title Draw Painter

  package draw {

    abstract class FigureCls {
      # color Java.awt.Color
      # legendRect java.awt.Rectangle
      + FigureCls(int x, int y int w, int y, Color c)
      + void setSize(int x , int y)
      + void setLocation(int x ,int y)
      + abstruct void paint(Graphics g)
      + abstruct void reDraw(int x1 int y1 , int x2, int y2)
    }

    class LineFigureCls extends FigureCls {
      + LineFigureCls(int x1, int y1, int w int h Color c)
      + void reDraw(int x1 int y1 , int x2, int y2)
      + void paint(Graphics g)
    }

    class CircleFigureCls extends FigureCls {
      + CircleFiguresCls(int x1, int y1, int w int h Color c)
      + void reDraw(int x1 int y1 , int x2, int y2)
      + void paint(Graphics g)
    }

    class RectangleFigureCls extends FigureCls {
      + RectangleFigureCls(int x1, int y1, int w int h Color c)
      + void reDraw(int x1 int y1 , int x2, int y2)
      + void paint(Graphics g)
    }

    class DrawAppCore {
      # figureList Deque<Figure>
      # drawFigure Figure
      # void actvColor Color

      + DrawAppCore()
      + setDrawPanel(DrawPanel panel)
      + int getNumberOfFigures()
      + void drawPaintAll(Graphics g)
      + void generateFigure(int x , int y)
      + void reDrawFigure(int x1 int y1 , int x2, int y2)
      + void updateColor(Color c)
      + void eachUndo()
      + void undo()
    }

    class DrawPanel extends JPanel {
      DrawPanel(DrawAppCore appCore)
    }

    class DrawMouseListener extends MouseInputAdapter {
      # appCore DrawAppCore
      # dragCursorStX int
      # dragCursorStY int
      + void mousePressed(MouseEvent e)
      + void mouseDragged(MouseEvent e)
      + void mouseReleased(MouseEvent e)
    }

    class SelectListener implements ActionListener {
      + SelectListener(DrawAppCore appCore)
      + void actionPerformed(ActionEvent e)
    }

    class AppLauncher {
      + static void main(String[] args)
    }
  }
@enduml

PlantUML version 1.2020.19(Tue Oct 13 00:10:01 JST 2020)
(GPL source distribution)
Java Runtime: Java(TM) SE Runtime Environment
JVM: Java HotSpot(TM) 64-Bit Server VM
Default Encoding: UTF-8
Language: en
Country: JP
-->
    </g>
</svg>